<?xml version="1.0" encoding="UTF-8" standalone="no"?><!DOCTYPE svg PUBLIC "-//W3C//DTD SVG 1.1//EN" "http://www.w3.org/Graphics/SVG/1.1/DTD/svg11.dtd"><svg width="100%" height="100%" viewBox="0 0 395 750" version="1.1" xmlns="http://www.w3.org/2000/svg" xmlns:xlink="http://www.w3.org/1999/xlink" xml:space="preserve" style="fill-rule:evenodd;clip-rule:evenodd;stroke-linecap:round;stroke-linejoin:round;stroke-miterlimit:1.5;"><g><circle cx="58.614" cy="268.278" r="46.928" style="stroke:#000;stroke-width:2px;"/></g><g><rect x="332.702" y="3.161" width="61.631" height="700.07"/><path d="M394.333,61.631l0,-61.631l-355.566,0l0,61.631l355.566,0Z"/><path d="M348.917,213.084l43.58,-43.58l-157.87,-157.87l-43.58,43.58l157.87,157.87Z"/><g><ellipse cx="69.563" cy="270.302" rx="27.176" ry="39.372" style="fill:none;stroke:#000;stroke-width:5.67px;"/><g><path d="M82.575,225.531c0,-1.006 -0.817,-1.823 -1.823,-1.823l-22.536,0c-1.006,0 -1.822,0.817 -1.822,1.823l0,3.645c0,1.006 0.816,1.823 1.822,1.823l22.536,0c1.006,0 1.823,-0.817 1.823,-1.823l0,-3.645Z"/><path d="M83.525,232.239c0,-1.306 -1.06,-2.366 -2.365,-2.366l-23.351,0c-1.306,0 -2.366,1.06 -2.366,2.366l0,4.731c0,1.306 1.06,2.366 2.366,2.366l23.351,0c1.305,0 2.365,-1.06 2.365,-2.366l0,-4.731Z"/><path d="M79.589,219.753c0,-0.823 -0.669,-1.492 -1.492,-1.492l-18.447,0c-0.823,0 -1.492,0.669 -1.492,1.492l0,2.984c0,0.824 0.669,1.492 1.492,1.492l18.447,0c0.823,0 1.492,-0.668 1.492,-1.492l0,-2.984Z"/></g><rect x="63.675" y="56.612" width="9.709" height="161.822"/></g></g><ellipse cx="73.499" cy="446.136" rx="27.421" ry="143.711" style="stroke:#000;stroke-width:5.67px;"/><path d="M83.045,575.338c0,-2.07 -1.68,-3.749 -3.749,-3.749l-7.498,0c-2.069,0 -3.749,1.679 -3.749,3.749l0,167.096c0,2.069 1.68,3.748 3.749,3.748l7.498,0c2.069,0 3.749,-1.679 3.749,-3.748l0,-167.096Z" style="stroke:#000;stroke-width:5.67px;"/><path d="M71.453,564.649c0.354,-2.039 -1.015,-3.981 -3.053,-4.334l-7.388,-1.28c-2.039,-0.354 -3.981,1.014 -4.334,3.053l-28.537,164.641c-0.354,2.039 1.015,3.981 3.053,4.334l7.388,1.281c2.039,0.353 3.981,-1.015 4.334,-3.054l28.537,-164.641Z" style="stroke:#000;stroke-width:5.67px;"/><path d="M76.884,394.652c0.874,-3.285 -1.082,-6.662 -4.367,-7.537l-11.903,-3.17c-3.285,-0.875 -6.662,1.082 -7.537,4.366l-50.035,187.861c-0.875,3.285 1.082,6.662 4.366,7.537l11.903,3.17c3.285,0.875 6.662,-1.082 7.537,-4.366l50.036,-187.861Z" style="stroke:#000;stroke-width:5.67px;"/></svg>