<?xml version="1.0" encoding="UTF-8" standalone="no"?><!DOCTYPE svg PUBLIC "-//W3C//DTD SVG 1.1//EN" "http://www.w3.org/Graphics/SVG/1.1/DTD/svg11.dtd"><svg width="100%" height="100%" viewBox="0 0 356 704" version="1.1" xmlns="http://www.w3.org/2000/svg" xmlns:xlink="http://www.w3.org/1999/xlink" xml:space="preserve" style="fill-rule:evenodd;clip-rule:evenodd;stroke-linecap:round;stroke-linejoin:round;stroke-miterlimit:1.5;"><g><rect x="293.935" y="3.161" width="61.631" height="700.07"/><path d="M355.566,61.631l0,-61.631l-355.566,0l0,61.631l355.566,0Z"/><path d="M310.15,213.084l43.58,-43.58l-157.87,-157.87l-43.58,43.58l157.87,157.87Z"/><g><ellipse cx="30.796" cy="270.302" rx="27.176" ry="39.372" style="fill:none;stroke:#000;stroke-width:5.67px;"/><g><path d="M43.808,225.531c0,-1.006 -0.817,-1.823 -1.823,-1.823l-22.536,0c-1.006,0 -1.822,0.817 -1.822,1.823l0,3.645c0,1.006 0.816,1.823 1.822,1.823l22.536,0c1.006,0 1.823,-0.817 1.823,-1.823l0,-3.645Z"/><path d="M44.758,232.239c0,-1.306 -1.06,-2.366 -2.365,-2.366l-23.351,0c-1.306,0 -2.366,1.06 -2.366,2.366l0,4.731c0,1.306 1.06,2.366 2.366,2.366l23.351,0c1.305,0 2.365,-1.06 2.365,-2.366l0,-4.731Z"/><path d="M40.822,219.753c0,-0.823 -0.669,-1.492 -1.492,-1.492l-18.447,0c-0.823,0 -1.492,0.669 -1.492,1.492l0,2.984c0,0.824 0.669,1.492 1.492,1.492l18.447,0c0.823,0 1.492,-0.668 1.492,-1.492l0,-2.984Z"/></g><rect x="24.908" y="56.612" width="9.709" height="161.822"/></g></g></svg>